<svg xmlns="http://www.w3.org/2000/svg" width="862.56" height="243.17" viewBox="0 0 862.56 243.17"><defs><style>.cls-1,.cls-2{fill:#02acea;}.cls-1{fill-rule:evenodd;}</style></defs><title>Dennislaw Logo</title><g id="Layer_2" data-name="Layer 2"><g id="Layer_1-2" data-name="Layer 1"><g id="Group_249" data-name="Group 249"><g id="Group_6" data-name="Group 6"><g id="Group_5" data-name="Group 5"><path id="Path_37" data-name="Path 37" class="cls-1" d="M735.67,57.43H736a18.7,18.7,0,0,0,1.19,3.15c.44,1.09.87,2.06,1.2,3,.76,2,7.18,17.18,7.39,18.38H726.32c.44-1,.76-2,1.09-2.94s.76-2.06,1.2-3.15c.87-2.07,1.52-4,2.28-6.09l3.48-9.24a10.1,10.1,0,0,0,1.3-3.15Zm-87.2-11.64a13.07,13.07,0,0,1,6.09,1.63l1.42,1.2A12.25,12.25,0,0,1,657.06,50a11.18,11.18,0,0,1,.76,1.74,16.85,16.85,0,0,1,.66,4.68v42.4c0,5.55-2.28,9.57-7.94,10.44-1.85.32-2.17-.54-2.17,1.3H727.3V109.4a7.39,7.39,0,0,1-7.72-7v-.76a20.09,20.09,0,0,1,1.09-4.9c.87-2.71,2.17-5.76,3.26-8.48l1.63-4.24h21.31c.11,1.74,6.63,14.79,6.63,18.7a5.78,5.78,0,0,1-2.71,5,14,14,0,0,1-6.2,1.52v1.2h31.75V109.4a21.49,21.49,0,0,1-5.22-1c-4.35-1.85-6.09-6.63-7.83-10.77l-9.13-22c-.66-1.52-1.2-2.82-1.85-4.35s-1.2-2.93-1.85-4.35l-9.13-22.18h-3.16a29.71,29.71,0,0,1-1.63,4.36l-1.63,4.34C733,58.84,730,65.58,728.17,70.8l-6.74,17.51c-2.39,6-5.33,15.44-10.66,19.46a9.46,9.46,0,0,1-4.46,1.74l.55-16.31c0-1,.22-1.2.22-2.18l-1.42-.21c0,2.28-2.06,8.15-3.48,10.44a14.82,14.82,0,0,1-1,1.41,11.28,11.28,0,0,1-1.08,1.3,24.7,24.7,0,0,1-2.5,2.18,9.21,9.21,0,0,0-1.41.87c-4.35,2.5-14.14,3.15-19.58,1-6.19-2.4-7.28-8.49-7.28-15.44V56.88c0-7.61,2.94-10.54,10.22-11.2v-1h-31.1Z"></path><path id="Path_38" data-name="Path 38" class="cls-2" d="M778,112.22H743v-4.46h1.63a12,12,0,0,0,5.43-1.3,3.87,3.87,0,0,0,1.85-3.59c0-2.17-2.61-8.37-4.35-12.5-1-2.18-1.52-3.59-1.85-4.57H726.76l-1.2,3.26c-.22.66-.54,1.31-.76,2-.87,2.17-1.74,4.35-2.5,6.41a16.72,16.72,0,0,0-1,4.46v.55a5.78,5.78,0,0,0,6,5.43l1.74-.1v4.56h-82.2V110.7a3.07,3.07,0,0,1,.66-2.28,2.26,2.26,0,0,1,1.85-.55h1c4.46-.65,6.64-3.58,6.64-8.8V56.67a14.61,14.61,0,0,0-.66-4.25,7.32,7.32,0,0,0-.54-1.41,10.13,10.13,0,0,0-.76-1.09l-1.31-1a12.48,12.48,0,0,0-5.22-1.42h-1.63V43.07H681.2v4.14l-1.52.1c-6.52.55-8.7,2.94-8.7,9.57V92.55c0,6.84,1.09,11.85,6.31,13.91,4.78,1.85,14.13,1.42,18.15-.87a2.33,2.33,0,0,1,.55-.32c.21-.11.54-.33.76-.44a19.24,19.24,0,0,0,2.28-2,12.51,12.51,0,0,0,1-1.2l.65-1,.22-.32c1.31-2.18,3.26-7.72,3.26-9.57v-2l4.68.76V91c0,.65-.11,1-.11,1.3s-.11.44-.11.87l-.44,14.24a5.68,5.68,0,0,0,1.85-1c4-3,6.74-10,8.92-15.65.43-1.09.76-2.07,1.19-3l6.75-17.39c1-2.61,2.17-5.66,3.37-8.59s2.39-6,3.37-8.7l1.74-4.46a26.19,26.19,0,0,0,1.52-4.13l.32-1.2h5.44l9.57,23.16c.54,1.19,1.09,2.61,1.85,4.35.43,1.19,1,2.28,1.41,3.37l.44.87,9.56,23c1.53,3.59,3.16,7.28,6.42,8.81a14.35,14.35,0,0,0,4.67.87l1.53.1v4.35ZM752.09,109h16.74c-3.37-2.28-5-6.09-6.52-9.57l-.43-1.08-9.46-22.94c-.44-1.2-1-2.29-1.41-3.48a33.35,33.35,0,0,0-1.85-4.24l-8.7-21.21h-.87a31.47,31.47,0,0,1-1.31,3.38l-1.63,4.24c-.21.54-.43,1.08-.65,1.73h1.2l.32,1.2c.33,1,.66,2,1.09,2.94.32.76.54,1.41.87,2.06l.43,1.09c.22.54.87,2.17,1.74,4.24,3.7,8.91,5.55,13.59,5.76,14.35l.22.87h.76l.11,1.52c.11.55,1.2,3,2.07,5.11,2.61,6.2,4.67,11.2,4.67,13.81A7.49,7.49,0,0,1,752.09,109ZM712,109h9.24a9.25,9.25,0,0,1-3.26-6.41V101a21.28,21.28,0,0,1-6,7.93Zm-16.09,0h8.91l.33-10a19.61,19.61,0,0,1-1.52,3l-.22.33c-.33.43-.54.87-.76,1.2a7.66,7.66,0,0,1-1.2,1.41,15.32,15.32,0,0,1-2.82,2.39l-1,.66c-.22.1-.33.21-.44.21A7.36,7.36,0,0,1,695.88,109Zm-40,0h19c-6.19-3.15-7.17-10-7.17-16.41V56.88c0-5.11,1.3-8.48,4.24-10.54H655.87l1.3,1.08a6.92,6.92,0,0,1,1.31,1.74,8.23,8.23,0,0,1,1,2.18,26.6,26.6,0,0,1,.76,5.11v42.4C660.22,103.42,658.69,106.9,655.87,109Zm72.84-28.59h14.68c-1.19-3.05-3.48-8.49-4.89-11.86-.87-2.06-1.52-3.69-1.74-4.24l-.43-1.08c-.22-.55-.44-1-.66-1.52l-3.37,8.69c-.43,1.09-.87,2.18-1.2,3.27A28.25,28.25,0,0,1,730,76.45c-.44,1.09-.76,2-1.2,3A1.15,1.15,0,0,1,728.71,80.37Z"></path></g></g><g id="Group_8" data-name="Group 8"><g id="Group_7" data-name="Group 7"><path id="Path_39" data-name="Path 39" class="cls-1" d="M754.59,46.12a11.83,11.83,0,0,0,2.72.32,8.51,8.51,0,0,1,5.76,3.48c2.07,3.16,9.46,21.64,11.2,25.77l14,33.6c.43,1.08,0,1,2.28,1,.65,0,1-1.74,1.3-2.94l3.27-9.57c1.41-4.24,2.82-8.37,4.35-12.61l8-23.92c.22-.65.22-1.2.66-1.52l1,3.15c1.42,4,3.7,10.33,4.79,14.13a15.72,15.72,0,0,0,.54,1.64l10,30a13,13,0,0,0,.55,1.63h2.17c.11-.76,4.68-11.63,5.22-12.93l16.2-38.93c1.41-3.26,4.46-9.45,7.39-11,1.63-.76,3.05-.76,4.9-1.2v-1H838.64v1c3,0,6,.65,7.39,3.69,1.85,4.14-1.09,11.85-2.5,15l-13,31.85c-.21-.86-.54-1.63-.76-2.6L827.22,86c-2.93-8.59-5.54-18.37-8.48-27-1.3-3.92-2.61-8.37,1.42-11.42,1.52-1.2,4.24-1.41,7-1.41v-1H796.34v1c3.92,0,7.18,1.3,8.7,5,1.74,4.13,1,7-.11,10.87-.21.76-.54,1.63-.76,2.5l-10,30.33c-.22.66-.11.87-.54,1.09L777.86,57.53c-1.3-2.94-3.37-8.15.76-10.44,1.09-.65,4.35-.87,6.09-.87v-1H754.59Z"></path><path id="Path_40" data-name="Path 40" class="cls-2" d="M828.74,111.9h-4.67l-.44-1a8.37,8.37,0,0,1-.43-1.31l-.11-.54-10-30a13,13,0,0,1-.55-1.63c-.76-2.61-2.06-6.52-3.26-9.89-.33-1-.65-2-1-2.83l-7.06,21c-1.42,4.13-2.94,8.26-4.35,12.61l-3.27,9.57c-.1.21-.1.54-.21.76-.44,1.41-1,3.26-2.61,3.26H790c-1.31,0-2.4,0-2.94-1.63,0-.11-.11-.22-.11-.33L773,76.35c-.33-.66-.76-1.85-1.31-3.16-2.61-6.41-8-19.78-9.68-22.39a6.45,6.45,0,0,0-4.56-2.72l-2.83-.33-1.3-.22v-4h33.05v4.24h-1.63a18.4,18.4,0,0,0-5.33.65c-2.5,1.42-1.85,4.35-.11,8.38l14.24,34.68,9.25-27.84c.21-.65.43-1.41.65-1.95l.11-.22c1-3.7,1.52-6.09.11-9.68-1.2-2.72-3.48-4-7.29-4h-1.63V43.51h34v4.24h-1.63c-1.3,0-4.56,0-6,1.09-2.71,2.06-2.39,5-.87,9.56,1.53,4.35,2.94,9.14,4.35,13.7s2.72,9,4.13,13.27l2,6.41L842,64.17c2.06-4.79,3.91-10.77,2.5-13.7-.87-1.85-2.61-2.72-5.87-2.72H837V43.51h25.56v3.91l-1.31.33c-.65.11-1.2.22-1.74.33a9.92,9.92,0,0,0-2.72.76c-1.85.87-4.35,4.78-6.63,10.11L834,97.87c-.11.33-.54,1.3-1.09,2.61-1.08,2.72-3.8,9-4,10ZM762.2,46.66a11.51,11.51,0,0,1,2.29,2.28c1.63,2.5,5.76,12.51,10,23,.54,1.3,1,2.39,1.3,3.15l14,33.6h0a3.83,3.83,0,0,0,.22-.87,8.18,8.18,0,0,1,.32-.87l3-8.92-.55.33L776.34,58.08c-1.09-2.5-3.48-7.94-.11-11.31h-14Zm47,10.44,1.63,5.33c.44,1.19.87,2.61,1.41,4,1.2,3.48,2.61,7.39,3.37,10.11.22.66.33,1,.55,1.52l10,30.12a.39.39,0,0,0,.11.22c.54-1.31,1.52-3.81,3.48-8.37l-.66-2.94a5,5,0,0,0-.43-1.41c-.11-.33-.22-.76-.33-1.09l-2.49-8.15c-1.42-4.24-2.83-8.81-4.14-13.38s-2.82-9.35-4.24-13.59c-1.08-3.37-2.93-8.81,1.31-12.72h-15a9.2,9.2,0,0,1,2.82,3.81,14.17,14.17,0,0,1,1,7.72Zm36.75-10.33a7.81,7.81,0,0,1,1.63,2.39,11.44,11.44,0,0,1,.54,6.42c1.42-3,3.59-6.85,6-8.81Z"></path></g></g><g id="Group_10" data-name="Group 10"><g id="Group_9" data-name="Group 9"><path id="Path_41" data-name="Path 41" class="cls-1" d="M296.85,107.66c-3.92,0-7.07-1.09-9.14-2.94A11.29,11.29,0,0,1,286.3,103a15,15,0,0,1-1.74-7.5V45.25c5.76,0,13.05-.22,17.73,1.74a23.33,23.33,0,0,1,9,5.76,22.51,22.51,0,0,1,3.37,3.92,40.29,40.29,0,0,1,2.83,4.67A39.72,39.72,0,0,1,320.88,73a38.29,38.29,0,0,1-4,23l-5.76,7.17c-3.7,3.15-8.81,4.57-14.24,4.57ZM263.79,44.38c0,.65,1.31.54,2,.65a8.7,8.7,0,0,1,2.29.55,6.31,6.31,0,0,1,3.26,2,6.59,6.59,0,0,1,1.95,3.37,17.63,17.63,0,0,1,.66,4.79V97c0,7.07-2.94,10.33-9.13,10.66-1,.11-.87,0-.87,1.19h37.94A52.43,52.43,0,0,0,314.79,107a21,21,0,0,0,5-2.29A25,25,0,0,0,329.9,92.66a37.79,37.79,0,0,0,1.74-22.73,36.12,36.12,0,0,0-5.11-11.85,31.64,31.64,0,0,0-2.72-3.59,20.11,20.11,0,0,0-2.06-2.17,8.39,8.39,0,0,0-1.09-1,20.33,20.33,0,0,0-2.39-1.85,34.73,34.73,0,0,0-19.57-5.77H263.79Z"></path><path id="Path_42" data-name="Path 42" class="cls-2" d="M263.79,110.48h-1.63v-1.84c0-1.2.11-2.4,2.18-2.61h.11c5.43-.33,7.72-3,7.72-9V55.69a19.27,19.27,0,0,0-.55-4.35,4.57,4.57,0,0,0-1.52-2.5l-.11-.11a5.6,5.6,0,0,0-2.39-1.52h-.11a9.06,9.06,0,0,0-1.85-.44h-.54c-2.39-.1-2.94-1.19-2.94-2.17V42H298.8a35.23,35.23,0,0,1,20.45,6.09c.86.65,1.74,1.3,2.49,2a4.34,4.34,0,0,1,.76.66l.33.32a15.69,15.69,0,0,1,2.28,2.4,31.65,31.65,0,0,1,2.83,3.69,39.79,39.79,0,0,1,5.33,12.29,39.33,39.33,0,0,1-1.85,23.7A26.88,26.88,0,0,1,320.55,106a24.65,24.65,0,0,1-5.44,2.39,51.28,51.28,0,0,1-13.37,2H263.79Zm7.51-3.26h17a8.31,8.31,0,0,1-1.63-1.19A9.31,9.31,0,0,1,285,104l-.11-.11a15.67,15.67,0,0,1-2-8.26V45.36H271.19a5.57,5.57,0,0,1,1.19,1.08,8.6,8.6,0,0,1,2.4,4,20.4,20.4,0,0,1,.65,5.22V97c0,4.79-1.31,8.16-4.13,10.22Zm31.42-61.75h0A29.5,29.5,0,0,1,316,55.8a35.61,35.61,0,0,1,2.94,4.89,43.45,43.45,0,0,1,3.48,12.18,39,39,0,0,1-4.24,23.92l-.22.21-6,7.4a15.21,15.21,0,0,1-3.15,2.17c1.85-.33,3.69-.76,5.54-1.2a25.69,25.69,0,0,0,4.68-2.06A23.54,23.54,0,0,0,328.49,92a35.5,35.5,0,0,0,1.63-21.74A33.5,33.5,0,0,0,325.33,59a24.28,24.28,0,0,0-2.61-3.37c-.65-.76-1.3-1.42-2-2.07-.22-.22-.44-.32-.55-.54a1.37,1.37,0,0,0-.43-.33l-.11-.11c-.76-.65-1.52-1.19-2.28-1.74A30.83,30.83,0,0,0,302.72,45.47Zm-15,56.75a7.17,7.17,0,0,0,1.09,1.41c1.74,1.53,4.57,2.4,8.05,2.4h.32a20,20,0,0,0,12.72-4l5.55-7a35.39,35.39,0,0,0,3.81-21.85A40.26,40.26,0,0,0,316,62a37.56,37.56,0,0,0-2.6-4.46,20.22,20.22,0,0,0-3.16-3.69,20.91,20.91,0,0,0-8.37-5.44c-4-1.63-10.33-1.63-15.55-1.63V95.48A11.88,11.88,0,0,0,287.71,102.22Z"></path></g></g><g id="Group_12" data-name="Group 12"><g id="Group_11" data-name="Group 11"><path id="Path_43" data-name="Path 43" class="cls-1" d="M479.62,44.92c9.24,0,10,6.31,10,14.25V93.31c0,7.28-.66,13.69-8.92,14.24-1.19.11-1.19-.11-1.19,1.19h22.18c0-1.95,0-.76-3.26-1.52a7.76,7.76,0,0,1-6.2-6.09c-1-3.8-.66-11.19-.66-15.87V52.42c2.07,2.29,4.24,5.44,6.31,7.83l10.55,13.27L511.25,77l14.14,17.72,2.82,3.48,3.59,4.46c.22.32.44.54.66.87.54.65,3.69,5.22,4.46,5.22H539V56.12c0-6.2,2-10.33,7.94-11.2,1.85-.22,2.18.55,2.18-1.19H526.8c0,1.74-.21.87,2.83,1.41a8.2,8.2,0,0,1,6.3,4.78c1.31,3,1,9.35,1,13.7V92.87c-2.61-2.93-7.06-9-9.67-12.28-3.92-4.9-8.27-10.66-12.18-15.44L498.75,44.38c-.22-.33-.32-.65-.87-.65H479.62Z"></path><path id="Path_44" data-name="Path 44" class="cls-2" d="M540.61,110.48h-3.69c-1.09,0-1.85-.65-5.22-5.11a6.75,6.75,0,0,0-.44-.65,6.58,6.58,0,0,1-.76-1L525.94,98c-.55-.76-1.09-1.41-1.74-2.18L510.06,78.08a22.29,22.29,0,0,1-1.52-2,18.77,18.77,0,0,0-1.31-1.52L496.69,61.34c-.87-1.09-1.85-2.28-2.72-3.48a6.16,6.16,0,0,1-.65-.87V88.41c-.11,4.24-.11,9.57.54,12.29a6.44,6.44,0,0,0,4.89,4.89c1.09.22,1.74.22,2.18.33,2.39,0,2.39,1.74,2.39,2.82v1.63H478v-1.63c0-1.08,0-2.72,2.28-2.82h.43c6.31-.44,7.4-4.46,7.4-12.61V59.17c0-8.81-1.2-12.72-8.48-12.72H478V42h19.78a2.35,2.35,0,0,1,2.07,1.19l.11.11,16.31,20.77c2.06,2.5,4.24,5.43,6.41,8.15,2,2.5,3.81,4.9,5.66,7.18,1,1.2,2.06,2.72,3.37,4.35,1.08,1.41,2.28,3,3.37,4.46v-27c0-3.8.11-8.48-.87-10.76a6.48,6.48,0,0,0-5-3.81c-.87-.11-1.42-.22-1.85-.22-1.74-.11-2.39-.87-2.39-2.61V42h25.55v1.63a3.07,3.07,0,0,1-.66,2.28,2.23,2.23,0,0,1-1.85.54h-1c-4.57.66-6.53,3.48-6.53,9.57v54.47Zm-53.49-3.26h7.18a9.68,9.68,0,0,1-3.59-5.54c0-.11,0-.22-.11-.22a10.26,10.26,0,0,1-3.48,5.76Zm2.94-59,2.82,3.27c1.2,1.3,2.4,2.93,3.59,4.46.87,1.19,1.85,2.39,2.72,3.37l10.55,13.26c.43.54.87,1.09,1.19,1.52.55.66,1,1.31,1.52,2l14.14,17.72c.65.77,1.19,1.42,1.74,2.18l4.56,5.76a3.86,3.86,0,0,0,.55.66l.11.1a8.19,8.19,0,0,1,.54.77c1.52,2,2.5,3.26,3,3.8V95.81l-1.85-2.07c-1.74-2-4.24-5.22-6.42-8a52.83,52.83,0,0,0-3.37-4.24c-1.85-2.29-3.81-4.79-5.65-7.29-2.18-2.72-4.35-5.65-6.42-8.15L497.12,45.25v-.11H486.9a9,9,0,0,1,2.94,4v-1Zm44.14-2.82a11.19,11.19,0,0,1,3.15,3.91,9.35,9.35,0,0,1,.55,1.85,10,10,0,0,1,3.58-5.87H534.2Z"></path></g></g><g id="Group_14" data-name="Group 14"><g id="Group_13" data-name="Group 13"><path id="Path_45" data-name="Path 45" class="cls-1" d="M334.79,44.38c0,.54.33.44.87.54,7.07.44,9.24,4.35,9.24,11.86V95.59c0,5.22-.54,7.83-3.58,10.33a9.75,9.75,0,0,1-4.24,1.63c-2.29.43-2.29-.44-2.29,1.3H392l.33-9.56c0-1.09.21-1.31.21-2.18v-2.5l.22-4.78h-1.19c-1.31,5.54-2.94,11.31-8.05,14.68s-16.42,3.91-21.42,1.3a10,10,0,0,1-4.57-4.13,10.46,10.46,0,0,1-1.19-3c-1.2-4.47-.87-18.71-.87-23.27,6.63,0,12.28,0,14.68,7.28a23.81,23.81,0,0,1,1.08,5.55h1.2c0-2.83.22-5.11.22-8V62.43h-1.2a22.86,22.86,0,0,1-.87,4.78c-1.85,7.18-8.8,6.63-15.22,6.63V45.25c5.22,0,16-.55,20.44,1a13.91,13.91,0,0,1,8.37,7.28,22.7,22.7,0,0,1,1.74,6.09h1.2c0-1.52-.22-2.39-.22-3.91l-.43-7.83V45.79c0-1-.22-1.3-.22-2.06H334.79Z"></path><path id="Path_46" data-name="Path 46" class="cls-2" d="M393.61,110.48H333.16v-1.73c0-1,0-2.61,2.29-2.72a7.13,7.13,0,0,0,1.3-.11h.11a6.5,6.5,0,0,0,3.37-1.31c2.39-2,2.93-3.69,2.93-9V56.77c0-7.28-2-9.89-7.72-10.22h-.1c-2.07-.11-2.29-1.52-2.29-2.17V42.1h54.8v1.63a1.34,1.34,0,0,0,.11.65c0,.33.11.76.11,1.41v2l.43,7.83a13.06,13.06,0,0,0,.11,2.07c0,.65.11,1.19.11,2.06v1.63h-4.24l-.22-1.41a25.44,25.44,0,0,0-1.63-5.66,13.08,13.08,0,0,0-7.39-6.41c-3.37-1.09-11.31-1-16.53-1H357V72.21c6.63,0,10.77-.32,12-5.32a22,22,0,0,0,.76-4.57l.11-1.52h4.35V80.15c0,1.42,0,2.72-.11,4s-.11,2.49-.11,3.91v1.63h-4.35l-.1-1.52a20.63,20.63,0,0,0-1-5.11C366.76,77.76,363.06,77,357,77v1.09c0,5.76-.11,16.52.87,20.11a9.5,9.5,0,0,0,1.09,2.61,8.4,8.4,0,0,0,3.81,3.48c4.34,2.17,14.89,2,19.89-1.2,4.57-3,6.09-8.37,7.29-13.59l.32-1.3h4.24l-.21,6.52v2.61c0,.43-.11.76-.11,1.09s-.11.54-.11,1.08Zm-12-3.26h8.81l.33-7.94c0-.65.11-1.08.11-1.52v-.21a16.72,16.72,0,0,1-6.53,8.26A15.59,15.59,0,0,1,381.65,107.22Zm-39.35,0h18.91a11.83,11.83,0,0,1-5.11-4.67,13.45,13.45,0,0,1-1.41-3.37c-1-3.7-1-12.83-1-21V75.58h-.11V45.47H342.4c3.59,2.61,4.14,7.06,4.14,11.41V95.7c0,5.43-.66,8.59-4.24,11.52ZM365,74.82a10.14,10.14,0,0,1,5.87,5.44V70.58A8.91,8.91,0,0,1,365,74.82ZM378,45.36a16.56,16.56,0,0,1,7.17,6.52L384.92,48V45.36Z"></path></g></g><g id="Group_16" data-name="Group 16"><g id="Group_15" data-name="Group 15"><path id="Path_47" data-name="Path 47" class="cls-1" d="M403.29,44.38c0,.87,2.07.33,4.46,1.2,4.89,1.74,5.55,6.63,5.55,11.41v38.6c0,6.31-1.2,10.88-7.83,12-2.28.44-2.28-.43-2.28,1.31h22.18v-1.2c-9.46,0-10-6.85-10-14.24V52.53A28.49,28.49,0,0,1,418.19,56c1,1.2,1.74,2.29,2.83,3.48L423.84,63c1,1.2,1.85,2.39,2.83,3.59l32.4,40.66c1.52,2,.66,1.63,3.59,1.63V57.1c0-4.68.65-9.79,5.44-11.53,4-1.52,4.56.33,4.56-1.84H450.58c0,1.74-.1.87,2.83,1.41,8.37,1.52,7.18,10.87,7.18,18.48V92.87c-.66-.43-5.22-6.41-6.09-7.5-7.61-9.35-15.33-19.9-22.94-29.25-.87-1-1.52-2-2.39-3l-6.63-8.38c-.44-.43-.44-.32-.66-1h-18.7v.65Z"></path><path id="Path_48" data-name="Path 48" class="cls-2" d="M461.35,110.48a2.93,2.93,0,0,1-2.93-1.41,9.05,9.05,0,0,0-.66-.87l-32.4-40.66c-1-1.31-1.85-2.39-2.83-3.59l-2.82-3.48c-.66-.76-1.2-1.52-1.85-2.28-.33-.44-.66-.76-1-1.2V93.3c0,8.81,1.2,12.62,8.48,12.62H427v4.45H401.55v-1.74c0-1,0-2.6,2.28-2.71a7.17,7.17,0,0,0,1.31-.11c4.78-.76,6.41-3.48,6.41-10.33V56.88c0-5.87-1.3-8.7-4.56-9.9a7.11,7.11,0,0,0-2.5-.43c-1-.11-3-.22-3-2.17V42.1H423l.32,1.19a1.41,1.41,0,0,1,.33.44l6.63,8.37,1,1.3c.43.55.87,1.09,1.3,1.74,3.92,4.79,7.83,9.9,11.64,14.79s7.61,9.79,11.3,14.46c.22.33.77,1,1.42,1.74a22.46,22.46,0,0,0,1.85,2.28V61.12c.11-8-.22-13.37-5.88-14.35-.87-.11-1.41-.22-1.73-.22-2.18-.11-2.4-1.41-2.4-2.61V42.1h25.34v1.63a3.23,3.23,0,0,1-.66,2.28,2.48,2.48,0,0,1-2,.65,8.56,8.56,0,0,0-3,.55c-3,1.08-4.35,4.13-4.35,10v53.28h-2.72Zm-50.56-3.26H418a10.34,10.34,0,0,1-3.59-5.87A9.48,9.48,0,0,1,410.79,107.22Zm2.94-58.71,2.83,2.94c1.08,1.08,2.06,2.39,3,3.58a12.51,12.51,0,0,1,1,1.2c.54.76,1.09,1.41,1.74,2.17l2.82,3.48c1,1.2,1.85,2.4,2.83,3.59l32.4,40.67a3.71,3.71,0,0,1,.66.86V94.94l-1.31-.87c-.54-.44-1.63-1.63-5.11-6.2a15.74,15.74,0,0,1-1.3-1.74c-3.81-4.68-7.62-9.68-11.42-14.57s-7.72-10-11.52-14.79A18.26,18.26,0,0,1,429,55l-1-1.3-6.63-8.37-.22-.22L421,45H410.79a9.75,9.75,0,0,1,2.94,3.81v-.33Zm44.36-3.15a10.62,10.62,0,0,1,3.59,5.87,9.82,9.82,0,0,1,3.58-5.87Z"></path></g></g><g id="Group_18" data-name="Group 18"><g id="Group_17" data-name="Group 17"><path id="Path_49" data-name="Path 49" class="cls-1" d="M601.71,60c0,5.54,1.42,8.91,4.79,12.39,2.39,2.39,5.43,3.7,8.26,5.33,2.07,1.09,4.24,2.06,6.42,3.37,4.78,2.83,7.61,4.46,9.24,10.33,3.69,12.5-8.27,21.85-19.25,15.33a16.66,16.66,0,0,1-4.89-4.68A37.43,37.43,0,0,1,600.63,89h-1.2c0,2.39-.22,4.24-.22,6.63v13c2.07,0,1-.33,2-1.42,1.74-1.74,4.67-.32,6.41.55a24,24,0,0,0,3.59,1.3,27.38,27.38,0,0,0,17.94-.22,21.63,21.63,0,0,0,4.89-2.71l1.64-1.53c5.43-5.87,7.39-13.8,4.34-21.31a18.55,18.55,0,0,0-3.69-5.87c-3.81-4.13-10.33-6.74-15.11-9.24a44.58,44.58,0,0,1-5.55-2.94c-4.89-3.26-8-8.59-5.54-15a10.23,10.23,0,0,1,9.35-6.63c3.26,0,5.43.22,8.15,2.17s4.13,4.35,5.66,7.18a30.24,30.24,0,0,1,2.28,6.19c.22.66.33,1,.54,1.74a2.61,2.61,0,0,1,.22.77c.22.76,0,.65,1.41.65,0-6.52-.32-12.61-.32-19-2.07,0-.87.11-1.85,1.42-2.61,3.91-11.42-6.85-23.27-1.2A20.13,20.13,0,0,0,607,47.32,18.67,18.67,0,0,0,601.72,60Z"></path><path id="Path_50" data-name="Path 50" class="cls-2" d="M619.87,112.22a29.28,29.28,0,0,1-9.13-1.52c-1.2-.43-2.5-.87-3.7-1.41s-3.69-1.74-4.56-.87c-.11.11-.11.11-.11.22-.54,1.63-2,1.63-3,1.63h-1.63V95.59c0-1.13,0-2.25.11-3.37s.11-2.07.11-3.27V87.32H602l.33,1.31c.87,3.7,2.93,9.24,5.44,12.5a14.79,14.79,0,0,0,4.46,4.24c4.46,2.61,9.45,2.5,13.15-.43s5.11-7.94,3.59-13-3.81-6.41-8.37-9.24l-.22-.11c-1.3-.76-2.5-1.41-3.81-2.07l-2.6-1.3c-.66-.33-1.2-.66-1.85-1a30.77,30.77,0,0,1-6.85-4.57C601.5,69.82,600,66,600,60.14h0a20.12,20.12,0,0,1,5.76-13.7,17.66,17.66,0,0,1,5.66-4.13c7.72-3.7,14.24-1.09,18.48.65,1.74.77,3.81,1.53,4.13,1,.22-.21.22-.32.22-.43.33-1.74,1.74-1.74,2.93-1.74h1.63V43.4c0,3.15.11,6.3.11,9.35s.22,6.41.22,9.68v1.63h-2.07c-.87,0-2.06,0-2.5-1.52v-.22l-.1-.33a3.45,3.45,0,0,1-.11-.54c-.11-.55-.22-.87-.33-1.31l-.11-.43a39.54,39.54,0,0,0-2.17-6c-1.52-2.83-2.72-4.78-5.11-6.52s-4-1.85-7.18-1.85A8.67,8.67,0,0,0,611.61,51c-2.82,7,2.5,11.42,4.9,13.05a30.78,30.78,0,0,0,5.32,2.82c.87.44,1.85.87,2.72,1.31,4.57,2.17,9.68,4.68,12.94,8.26a21.45,21.45,0,0,1,4,6.31c3.15,7.83,1.42,16.52-4.67,23l-1.74,1.74a19.39,19.39,0,0,1-5.33,2.93A30.33,30.33,0,0,1,619.87,112.22ZM603.35,60h0c0,5,1.19,8,4.35,11.19a23.83,23.83,0,0,0,6.08,4,9.73,9.73,0,0,1,1.85,1.08c.76.44,1.63.87,2.5,1.31,1.31.65,2.61,1.3,4,2.17l.22.11c4.79,2.94,7.94,4.79,9.79,11.09s.11,12.83-4.79,16.53c-.21.11-.43.33-.65.43.65-.21,1.3-.43,1.85-.65a17.44,17.44,0,0,0,4.35-2.5l1.52-1.41c5.11-5.55,6.63-12.83,3.91-19.57A17.06,17.06,0,0,0,635,78.52c-2.94-3.16-7.72-5.55-12-7.62-1-.43-1.85-.87-2.72-1.3a40.59,40.59,0,0,1-5.66-3c-6.41-4.24-8.7-10.54-6.19-17a10.35,10.35,0,0,1,1.74-3,16.49,16.49,0,0,0-2.07,1.85A17.43,17.43,0,0,0,603.35,60Zm0,44.79a9.91,9.91,0,0,1,4.13,1.09,32,32,0,0,1-2.5-2.83,31.39,31.39,0,0,1-4.13-7.83v10.22a5.73,5.73,0,0,1,2.5-.65Zm27.51-58.17a23.27,23.27,0,0,1,3.69,5.66l1.31,2.93a19,19,0,0,0-.11-2.39c0-2-.11-3.91-.11-6-1.31.76-3,.43-4.78-.22Z"></path></g></g><g id="Group_20" data-name="Group 20"><g id="Group_19" data-name="Group 19"><path id="Path_51" data-name="Path 51" class="cls-1" d="M558,44.38c0,1.3,4.24-.76,7.94,3.81C568,50.68,568,54.71,568,58.08V94.61c0,3.81-.22,7.61-2,9.79a9,9,0,0,1-7.06,3.37c-1.09.11-1-.11-1,1.19h30.66c0-1.3,0-1.08-.87-1.19-7.39-.66-9.24-4.79-9.24-12.62V57.86c0-4.24.32-8,2.71-10.33a7.09,7.09,0,0,1,2.61-1.74,9.52,9.52,0,0,1,2.29-.65,6.06,6.06,0,0,1,1.41-.11c1.09-.11,1,.11,1-1.19H557.9v.54Z"></path><path id="Path_52" data-name="Path 52" class="cls-2" d="M590.3,110.48H556.38v-1.84c0-.87,0-2.5,2.17-2.61H559a7.33,7.33,0,0,0,5.76-2.72c1.41-1.74,1.63-5.22,1.63-8.7V58.08c0-2.83,0-6.74-1.74-8.81a6.67,6.67,0,0,0-5.44-2.61c-.87-.11-2.93-.21-2.93-2.17V42.2h33.92v1.85c0,.87,0,2.5-2.17,2.61h-.33a1.64,1.64,0,0,0-.76.11,1.12,1.12,0,0,0-.54.11,5.89,5.89,0,0,0-1.85.54,4.73,4.73,0,0,0-2.07,1.42c-2,1.85-2.28,5-2.28,9.24V95.37c0,7.94,1.85,10.44,7.72,11h.32c2.07.22,2.07,1.74,2.07,2.61Zm-24.9-3.26h15.88C577.91,104.83,577,100.59,577,95V57.75c0-4,.21-8.59,3.26-11.52a9.1,9.1,0,0,1,1.08-1H565.51A13.24,13.24,0,0,1,567.36,47c2.5,3,2.5,7.61,2.5,10.87V94.39c0,3.81-.22,8.16-2.4,10.77a18.22,18.22,0,0,1-2.06,2.06Z"></path></g></g></g><g id="Group_250" data-name="Group 250"><g id="Group_39" data-name="Group 39"><g id="Group_28" data-name="Group 28"><g id="Group_27" data-name="Group 27"><path id="Path_58" data-name="Path 58" class="cls-1" d="M522,179.56c1.42-2.58,6.6-10.61,9.44-10.61C535.3,169,529.73,179.56,522,179.56ZM509.55,175c.38-1.94,2.58-5.82,3-7.89h2.72a26.63,26.63,0,0,1-5.7,7.89Zm7-9.44h-3a20.05,20.05,0,0,1,1.42-3.5,45.74,45.74,0,0,1,4.27-7.76c.65-.78.39-.65,1.56-.91.25,4.41-2.46,8.54-4.27,12.17Zm76.22,9.83a56.13,56.13,0,0,1,2.58-6.34,103.35,103.35,0,0,1,5.83-12A13.48,13.48,0,0,1,603,154.2c.65-1,1-1.94,2.33-2.2,2.2,2.59-9.45,21.09-12.55,23.42Zm-130.69,4.14c.65-2.46,6.86-10.09,2.2-10.61a4.79,4.79,0,0,0-2.72.78,70.43,70.43,0,0,0-9.44,8.15,12.52,12.52,0,0,1-1.68,1.94,11.68,11.68,0,0,1,1.42-2.85,29.42,29.42,0,0,1,4.4-6.85l1.16-1.3c-5.82-.52-5.17-1.16-10.34,9.19-.52,1-1,2.07-1.56,3.23a98.18,98.18,0,0,0-4.79,10.49c6.34-.52,4.15-1.17,8.29-7.25a34,34,0,0,1,9.18-10.09c5.82-3.76-8.93,16.43-1.3,17.08.52-1,.78-2.07,1.3-3.24a20.07,20.07,0,0,1,1.81-2.84,37,37,0,0,1,3.88-5.18,19.73,19.73,0,0,1,2.2-2.46c.91-.9,3.88-4.4,5.44-3.36s-.26,2.33-.78,3.1c-1.55,2.59-6.21,9.84-2.46,13.2,2.07,1.94,4.66,1.17,6.6-.26a20.58,20.58,0,0,0,4.4-5c0,2.58.13,3.88,1.56,5.17a3.9,3.9,0,0,0,4.78.52c3.5-1.81,4.66-5.57,6.47-6.86,0,2.33-.64,3.49.39,5.43,2.07,3.89,6.08,1.56,8-1l2.84-3.88c0,5.82,3.88,8.93,9.06,5.3a13.75,13.75,0,0,0,3.23-3.49l1.43-2.2c0,6.21,4.79,8.67,10.22,6.6,4.27-1.68,6.73-6.21,8.54-10.35a52.66,52.66,0,0,0,3.49-8.93c1.43,0,5.18,0,5.18,1.94V174c-.26,3.5-9.19,12-3.5,16.57,2.2,1.81,4.79.38,6.47-1.43.13-.13.13-.26.26-.39.78-.9,1.55-1.81,2.46-2.71.13,5,5.44,8.67,11.52.26l.26-.39c.38-.52.13-.26.38-.52,0,3.88,2.59,7.63,6.47,5.31s4.66-5.57,6.61-7.12a8.31,8.31,0,0,0,.38,6.08,4.05,4.05,0,0,0,4.66,1.42,12.65,12.65,0,0,0,3.75-3.23l2.46-3.63c.39-.64,0-.25.39-.51,0,3.88-.39,6.08,2.33,7.37a8.22,8.22,0,0,0,7.51-1.42,16,16,0,0,0,4.27-5.44l2.45-4.91c.39-1,.65-.91,0-2.07L600,183.06a24.76,24.76,0,0,1-4.14,5.56c-2.46,1.69-5.05,1.56-5.31-1.94-.64-8.15,4.27-10.74,6.09-13.07a62.22,62.22,0,0,0,10.61-18.37c2.71-8.41-3.5-8-7.38-2.72-4.27,5.57-6.73,12.68-9.31,19.28-.91,2.33-1.43,5-2.59,7.25l-1.56,3c-1.42,2.33-4,7.38-7,7.51a8.13,8.13,0,0,1-.13-4.66,39.1,39.1,0,0,1,3.62-8.28,14.19,14.19,0,0,0,2.2-3.88c-5.3,0-4.91-.78-7.76,4.91a35.17,35.17,0,0,1-7.52,10.48,5,5,0,0,1-3.49,1c-.78-3.5-1-3.37,1.17-7.77a30.5,30.5,0,0,1,9.05-11.25c2.2-1.56,5.7-2.2,6.61,1h1.16c.39-1.68,0-2.2-1.68-3.23a7.72,7.72,0,0,0-4.79-1c-7.76.65-12,7.38-14.75,13.85-1,2.58-4.79,9.57-8.28,8.54-2.72-.78.26-6.47.9-8,6-14,7.12-12.81-.64-12.81.9,3.89.9,1.43-.91,6.09A41.16,41.16,0,0,1,547,188c-.91,1-1.3,1.17-3.11,1.17-.91-3.75,1.16-6.86,2.72-10.1,5.56-11.64,6.08-9.31-5.44-9.31,1.94-1.68,4.4-4.27,3.11-7.38-.78-1.94-3.11-2.2-3.88,0s-1,5.18-1.94,7.51c-1.95,5.56-5.31,15.53-10,18.63-6,4-8.54-.26-7-6.08.51-2.07.64-1,4.65-2.33a16.27,16.27,0,0,0,3.36-1.55c9.58-6.34,5.7-15.79-3.49-9.58-4.14,2.72-6,6.21-8.15,10.74A26.57,26.57,0,0,1,512,188c-1,1-1.81,1.17-3.75,1.17l-.77-1a21.44,21.44,0,0,1,.77-7c.91-3.62.39-2.71,2.85-5a58.59,58.59,0,0,0,6.86-9.19c1.42,0,3.88.39,4.53-.65-.39-1.55-1.56-.9-3.63-.9l1.94-4.14c1.17-2.59,3.37-6.34,2.2-9.19a2.31,2.31,0,0,0-2.81-1.69h0c-.26.13-.52.13-.78.39-4.53,2.2-7.5,10.09-10,14.75-2.72,0-4.53-.91-4.53,1.55h3.62c0,1.68-3,8.8-3.62,11a22.93,22.93,0,0,1-5.31,9.31c-7.24,7.9-2.84-6.34,1.17-12.29a5,5,0,0,0,1.42-2.2c-4,0-4.66-1-6.47,2.33l-5.43,9.19c-7.38,10.87-11.78,3.1-1.17-10,1.68-2.07,5.69-6.34,8.93-5.17a2.69,2.69,0,0,1,1.42,1c.78,1,0,.78,1.3,1.17,1.81-1.3-.26-2.72-1.69-3.49-3.62-1.82-8-.13-11.12,1.94-5.83,3.88-7.12,10.48-8.67,12.94s-3.88,7-7.51,7.11c-1.16-2.07-.39-3.62.39-5.82,1.17-2.85,7-14.23,7.25-15.27-5,0-11.65,5.18-15,8.8a9.36,9.36,0,0,0-2.33,1.94Z"></path></g></g><g id="Group_30" data-name="Group 30"><g id="Group_29" data-name="Group 29"><path id="Path_59" data-name="Path 59" class="cls-1" d="M358.93,211.26c-2.33,0-3.62,0-3.62-2.71,0-4.4,5.17-7.51,8.41-8.93,2.07-.91,10.74-4.53,12.81-4.79a38.51,38.51,0,0,1-9.06,12.29c-1.94,1.69-5.82,4.15-8.54,4.15Zm-7.25-31.7a28.81,28.81,0,0,1,5.05-7.37c1.81-2.33,5.31-4.66,5.31-2.33a8.08,8.08,0,0,1-3.5,6.86,13.88,13.88,0,0,1-6.86,2.84ZM338.49,175c.77-3.37,6.6-15.14,8.28-18.12.9-1.55,2.46-4.53,4.14-4.92a16,16,0,0,1-2.46,8.41c-1.68,3.5-7.77,13.2-10,14.62Zm81.26,0c.38-1,.77-2.08,1.16-3,1.55-3.62,7.76-19.15,11.26-20.06,2.07,2.46-8.8,20.58-12.42,23Zm-18.12,9.18c0,2.33-.52,4.14.65,5.82,2.33,3.63,6.47.39,8.41-1.94.51-.64.9-1.29,1.42-1.94l1.17-1.68.38-.52c0,3.88-.51,6.21,2.33,7.38,5.18,2.07,9.71-2.85,11.78-6.86.9-1.55,3.23-5.44,2.59-6.86-1.69,1.17-2.59,4-3.63,5.82-1.29,2.2-4,7.51-7.5,6.61-1.17-.26-1.81-1.3-1.94-2.85a17.72,17.72,0,0,1,1.42-7.77c.65-1.81,10-9.18,15.14-23.55,3.11-8.67-4.27-10.48-10.87,2.85l-5.82,13.33a66.35,66.35,0,0,1-2.59,7.11c-1.42,2.72-4.92,10.61-8.8,10.61-.78-3.23.78-6.6,1.94-9.05.65-1.3,1.29-2.46,1.94-3.89a28.48,28.48,0,0,0,2.2-3.88c-1.81,0-3.1-.64-4.27,0a9.14,9.14,0,0,0-2.33,2.59c-2.46,4-4.27,8.41-7.63,11.78-5.82,5.69-7-.26-2.59-7.51a45.3,45.3,0,0,1,3.88-5.82c1.81-2.07,5.83-6.34,9.06-4.66,2.2,1,.26,1.94,2.85,1.94,1.29-5.43-12.68-7.5-19.41,5.82a17,17,0,0,0-1,2.2,21.48,21.48,0,0,1-3.75,7,15.11,15.11,0,0,1-3.75,3.24A37.38,37.38,0,0,0,384,182v-4.27c0-1.81-.39-2.33-.39-4.14-5.43.39-4,2.85-6.72,7.25-9.71,16.3-16.83,6.34-3-8.28,1.68-1.82,6.34-5.57,8.54-2.85,1,1.29.39,1.68,2.07,2.85a4.8,4.8,0,0,0,.91-1.82l-2.33-2.2c-8-4.4-15.66,3.37-18.89,10.23-2.2,4.52-5.31,11.9-11.65,11.25-3-.38-2.59-4.4-2.2-6.6s.39-2.2,1.94-2.59c10.22-2.2,15.14-11.51,9.71-13.32a8.12,8.12,0,0,0-6.86,1.55c-5.7,3.88-6.21,8.15-9.45,13.33-1.42,2.46-3.1,6.6-6.21,7.37s-4.14-2.33-3.75-4.92c1-7,3.1-7.24,6.73-11.64,2.2-2.72,15.52-22.39,8.93-24.33-2.33-.64-4.92,1.82-5.83,3.11a68,68,0,0,0-7.76,14.88c-1.3,3.36-2.59,6.6-3.62,10.09s-4.15,11.65.25,14a7.11,7.11,0,0,0,7-.65,14.43,14.43,0,0,0,4.4-4.92h.65a6.27,6.27,0,0,0,6.07,6.47h.14a4,4,0,0,0,1.81-.25,10.31,10.31,0,0,0,4.92-2.33c1-1.3,2.2-2.59,3.36-3.88,0,5.69,5.05,7.37,9.06,4.4a22.16,22.16,0,0,0,4-4.53l2.85-4.4c.13-.26.39-.52.52-.78a36.73,36.73,0,0,1-1,10c-.77,3.37-1.94,2.72-6.86,4.27s-11,3.89-15,7.51c-7.24,6.6.65,15.27,11.65,8.41a33.9,33.9,0,0,0,13.33-16.69c.77-2.07,3.36-2.72,5.82-5.44.78-.77.91-1.55,1.81-2.2a5.07,5.07,0,0,0,1.81,4.66,3.71,3.71,0,0,0,4.66.26c2.72-1.43,4.27-4.27,6.21-6.6Z"></path></g></g><g id="Group_32" data-name="Group 32"><g id="Group_31" data-name="Group 31"><path id="Path_60" data-name="Path 60" class="cls-1" d="M654,183.83c-.26-3.62-4.53-2.2-4.53.91a16.21,16.21,0,0,0,.91,3.36c-2.46,3.37-10.22,3.11-2.2-11.38a29.71,29.71,0,0,1,3-4.14c3-3.24,7-3.89,7-.39a12.44,12.44,0,0,1-1.42,7.11,13.34,13.34,0,0,1-2.72,4.53Zm34-9.06a15.85,15.85,0,0,1,1.42-3.88,14,14,0,0,1,1.68-3.75h2.46a3.19,3.19,0,0,1-1,2.07,22.91,22.91,0,0,1-4.53,5.56Zm6.72-9.05h-3a27,27,0,0,1,1.42-3.37c.91-2.33,3.63-8.15,5.83-8.8.9,3.63-2.86,9.45-4.28,12.17ZM725.12,175a38.71,38.71,0,0,1,2.59-6.34c1-2.07,1.68-4,2.72-6.08s1.94-3.88,3-5.82c.91-1.55,2.33-4.4,4.14-4.92,0,4.53-2.72,9.19-4.92,12.81-1.42,2.46-5.43,9.06-7.5,10.35ZM681,184.87C681,196,692.13,191,693.42,186c1.42,1,0,3,2.07,4.66,4.92,4.14,10-5.43,11.39-6.47,0,2.2-.91,3.62.39,5.69,3,4.79,7.63-.51,9.57-3.49l.77-1.16c.13-.13.26-.39.39-.52.39-.65.13-.26.39-.52,0,3.62,0,6.08,2.72,7a7.28,7.28,0,0,0,7.37-1.56c.91-.77,1.69-1.55,2.46-2.32a42.7,42.7,0,0,0,4.4-7.9c.39-1,.65-.9.13-1.94-1.81,1-3.23,4.92-4.27,6.73-6.21,10.87-11.9,5.31-7.5-5.05a32.8,32.8,0,0,1,3.88-4.53A53.81,53.81,0,0,0,735.34,163a78.81,78.81,0,0,0,3.5-7.51c1-3.1.77-7.76-3.37-6.21-3.88,1.43-7.37,8.8-9.19,12.81a116.74,116.74,0,0,0-4.78,11.65c-1.94,5.69-.52,2.72-3.37,7.89-6.73,12.81-10.61,9.19-5.3-1.42l3-5.31c.52-.9.91-1,1.17-1.94-6,0-4.27-1.68-9.58,8a28.78,28.78,0,0,1-6.08,7.63c-4.4,3.36-6.6-2.33,2.2-13.59a21.9,21.9,0,0,1,5.43-4.91c1.94-1,3.88-1.69,5.31.26,1,1.42-.39,1,1.55,1.16,1.55-3.36-5.82-6.73-13.33-1.42-5.82,4.14-7.24,11-8.54,13.07-2.33,3.88-4,6.34-8,6.34-1.55-2.2-1-3.5-.26-6.61,1-4.14.26-3.49,2.59-5.82a48.58,48.58,0,0,0,7.38-9.57c2.84,0,3.75.38,4.52-.65-.38-1.3-.13-.91-3.62-.91,1.68-3.1,5.56-10.09,4.27-13.33-1.81-4.65-7,.78-9.45,5.18L687.07,166c-4.27,0-4.52-.52-4.52,1.55h3.88l-3.5,9.32a34.94,34.94,0,0,1-1,3.49,45.84,45.84,0,0,1-4.92,8c-1,1.16-1.29,1.29-3.36,1.29-1.43-6.08,8.28-17.34,6.21-19.41-.39-.39-2.85,0-4,0h-4.53c1.17-1.68,2.59-2.2,3.11-4.79.77-3.88-3.63-6.72-4.53-1.42-1.43,7.51-5,17.21-9.58,22.9a8.19,8.19,0,0,1-2.07,2.2c-1.55,1-4.92,1.43-5.17-1.16l1.29-1.16c3.49-3.76,7.63-11.91,4.66-16.7-3.88-6.21-16.18,2.07-18.25,13.72-.64,3.36.26,6.47,2.46,7.5a6.41,6.41,0,0,0,4.4.26,9.75,9.75,0,0,0,3.63-1.94c9,6.08,14.23-7.63,16.82-14.1.52-1.17.77-2.33,1.42-3.5,2.46,0,6.21.65,4.79,3.5-1.94,3.75-7.38,10.87-3.88,15a3.76,3.76,0,0,0,4.53.9,9.68,9.68,0,0,0,3.23-2.84,14.92,14.92,0,0,0,1.42-1.56Z"></path></g></g><g id="Group_34" data-name="Group 34"><g id="Group_33" data-name="Group 33"><path id="Path_61" data-name="Path 61" class="cls-1" d="M282.07,158.34A67.82,67.82,0,0,1,293.46,147a35.11,35.11,0,0,1,7.37-4.14c6.21-2.2,19.93-3.88,18.25,5.57-.91,5.43-5.83,8.54-10.87,9.83a58.65,58.65,0,0,1-22.78.91A13.8,13.8,0,0,0,282.07,158.34Zm14.62,21.87c-.91,3.88-2.72,9.7,0,13.59,3.24,4.4,9.32.64,11.9-1.43,3.63-3,11.65-18.11,7.51-14.1-.26.26-5.05,11.13-10.87,14.49-8.28,4.79-5.17-9.19-2.59-15.4,4.14-9.57,11-12.68,6.86-16.3-3.23.26-4.66,4.53-6.6,7.76-4.4,7.12-14.62,18.25-21.74,21.74-10.74,5.44-14.36-1.16-10.87-11.77,3.11-9.45,9.84-17.21,10.22-18.9,2.85.26,4.4,1.43,10.35,1.56,1.55,0,1.81.38,3.63.38,7.63,0,16.56-1,22.51-5.43l1.29-1.16c9.45-7.9,1.69-20.19-16.69-14.88-2.07.64-4,1.42-6,2.2-9.06,3.88-16,12.68-18.12,14.1A11.3,11.3,0,0,1,274.3,155a14.68,14.68,0,0,1-2.59-2.33c-3.49-3.75-.52-4.92-1.55-7.25-3.37.26-2.59,5.83-1,7.77a17.84,17.84,0,0,0,6.86,5l-4.53,7c-2.72,4.4-6.08,11.39-6.08,17.08s0,10,5.56,12.16c3.76,1.56,10.23-.9,13.33-3a70,70,0,0,0,9.45-7.89Z"></path></g></g><g id="Group_36" data-name="Group 36"><g id="Group_35" data-name="Group 35"><path id="Path_62" data-name="Path 62" class="cls-1" d="M625.61,176.84l-.26.65Zm-2.33,13.07a5.23,5.23,0,0,1-2.45-.64,8.29,8.29,0,0,1,1.42-2.85l4.66-8.15a45,45,0,0,1,3.36-5.18c1.17-1.42,2.59-3.49,4.92-3.49s1.68,4,.9,6.08a26.16,26.16,0,0,1-3.23,5.95,8.38,8.38,0,0,1-1.94,2.33c-1.68,1.69-5.57,6-7.64,6Zm2.33-13.07a15.36,15.36,0,0,1,.65-3.36,12.12,12.12,0,0,0,.26-3.75c0-1.94-.13-1.94-2.2-1.81a13.93,13.93,0,0,0-3.37.64c-.25.26.52,1.3.65,2.72a16.71,16.71,0,0,1-1.55,6.21,7,7,0,0,0-1.16,3.11h1.16a122.32,122.32,0,0,1-6.47,14.75l-5.43,10.35c-.78,1.29-1.43,2.2-2.07,3.36,2.84,0,4.79,1.29,6.47-1.16q3.39-7.1,6.07-14.49a14.41,14.41,0,0,0,1.17-3.11c1.3.13,1.94.78,3.36.91A13,13,0,0,0,627,191a11.74,11.74,0,0,0,5.69-3.11c12.94-12.93,6.6-28.33-3.49-16.3-.65.78-1.17,1.55-1.82,2.46a6,6,0,0,1-1.81,2.85Z"></path></g></g><g id="Group_38" data-name="Group 38"><g id="Group_37" data-name="Group 37"><path id="Path_63" data-name="Path 63" class="cls-1" d="M557.41,162.09c0,2.59,3.36,1.82,3.36-.51C560.77,159.9,557.41,160,557.41,162.09Z"></path></g></g></g></g><g id="Group_248" data-name="Group 248"><g id="Group_22" data-name="Group 22"><g id="Group_21" data-name="Group 21"><path class="cls-1" d="M118.7,207.69l-.38.12a.48.48,0,0,0-.26-.12Z"></path></g></g><g id="Group_26" data-name="Group 26"><g id="Group_25" data-name="Group 25"><path id="Path_57" data-name="Path 57" class="cls-1" d="M0,0V243.17H211.93V0ZM210.6,242H1.21V1.09H210.6Z"></path><path class="cls-1" d="M193.87,138.12l-72.28-.06v-8.48l2.3-.12c11.69-.62,17.84-6.33,18-18.2.28-22.23-6.79-45.91-25.16-59.83-10-7.56-21.55-10.83-33.89-11.22h-4c-3.64,0-8,.12-10.54,0,.16,0,.14,27.76.12,29.57,0,5.21-.16,10.74,2.1,15.57a19.11,19.11,0,0,0,9.59,9.41A15.49,15.49,0,0,0,86.21,96c.36,0,4.5.35,4.5.35v9H17.2V97.12c0-.19,7.37-1,8-1.13a15.38,15.38,0,0,0,10.37-6c2.33-3.24,2.86-7.14,3-11,.28-6,0-12.15,0-18.2.06-6.78-.8-14.28-6.94-18.37l-.37-.25c-.11-.12-.24-.12-.36-.24a18.27,18.27,0,0,0-4.84-1.82L17,38.76V30.28h85.61c9.19,0,19,2.85,27.26,6.61a71.85,71.85,0,0,1,25.3,19.35,80,80,0,0,1,17.92,42.08c.26,2.29.46,4.64.6,6.92.18,3.19-.32,6.31.16,9.52.53,3.51,1.86,7.06,4.63,9.38,4.45,3.72,9.4,5.3,15.43,5.44Z"></path><path class="cls-1" d="M193.87,149.19H118.44v8.53c5.77,0,12.94-.33,17.26,4.23a11.21,11.21,0,0,1,2.77,5.64c1,5.07-.46,10.33-2.28,15a32.09,32.09,0,0,1-12.09,15.49,35.71,35.71,0,0,1-9.77,3.76,61.69,61.69,0,0,1-26.21,1.17A27.47,27.47,0,0,1,79,200.15c-4.27-2.63-6.84-7.74-8.36-12.38a43.76,43.76,0,0,1-2.12-13.24c-.08-9.4-.24-34.53.38-40,.44-3.92,1.67-7.94,4.5-10.69s6.31-3.59,10-4c.5,0,7.31-.57,7.31-.6V109.6H17.07v9.57l2.91.12c4.62,0,10.06.93,13.56,4.18,2.62,2.44,3.89,6,4.42,9.56,1.16,7.66.83,47.92.83,47.92s-.36,19-9.72,22.5a25.65,25.65,0,0,1-9,1.58h-3v9.73s128.12.2,128.85,0c2.45-.66,6-3.12,7.9-4.46,6.18-4.38,10.34-11.74,13.13-18.66a69.18,69.18,0,0,0,3.37-11.09c.92-4.18,1.24-8.53,2.79-12.54a14.61,14.61,0,0,1,5.5-7.23c4.34-2.77,10.31-2.52,15.26-3.07C193.86,156.92,193.87,149.19,193.87,149.19Zm-75.55,58.62a.48.48,0,0,0-.26-.12h.64Z"></path></g></g></g></g></g></svg>